<mxfile host="app.diagrams.net" modified="2023-11-24T17:22:11.924Z" agent="Mozilla/5.0 (Windows NT 10.0; Win64; x64; rv:120.0) Gecko/20100101 Firefox/120.0" etag="j8UIcY5urReCj7bhxkGB" version="22.1.3" type="device">
  <diagram name="Seite-1" id="P3pYgt6-kwLmCJC4brJT">
    <mxGraphModel dx="334" dy="505" grid="1" gridSize="10" guides="1" tooltips="1" connect="1" arrows="1" fold="1" page="1" pageScale="1" pageWidth="827" pageHeight="1169" math="0" shadow="0">
      <root>
        <mxCell id="0" />
        <mxCell id="1" parent="0" />
        <mxCell id="JIT0sakNjQuN4NCG6WRB-1" value="2/0" style="ellipse;whiteSpace=wrap;html=1;aspect=fixed;" vertex="1" parent="1">
          <mxGeometry x="40" y="40" width="80" height="80" as="geometry" />
        </mxCell>
        <mxCell id="JIT0sakNjQuN4NCG6WRB-2" value="1/1" style="ellipse;whiteSpace=wrap;html=1;aspect=fixed;" vertex="1" parent="1">
          <mxGeometry x="40" y="160" width="80" height="80" as="geometry" />
        </mxCell>
        <mxCell id="JIT0sakNjQuN4NCG6WRB-3" value="0/0" style="ellipse;whiteSpace=wrap;html=1;aspect=fixed;" vertex="1" parent="1">
          <mxGeometry x="160" y="100" width="80" height="80" as="geometry" />
        </mxCell>
        <mxCell id="JIT0sakNjQuN4NCG6WRB-4" value="" style="curved=1;endArrow=classic;html=1;rounded=0;" edge="1" parent="1" target="JIT0sakNjQuN4NCG6WRB-1">
          <mxGeometry width="50" height="50" relative="1" as="geometry">
            <mxPoint x="120" y="70" as="sourcePoint" />
            <mxPoint x="110" y="30" as="targetPoint" />
            <Array as="points">
              <mxPoint x="160" y="80" />
              <mxPoint x="180" y="50" />
              <mxPoint x="160" y="20" />
              <mxPoint x="120" y="20" />
            </Array>
          </mxGeometry>
        </mxCell>
        <mxCell id="JIT0sakNjQuN4NCG6WRB-5" value="" style="curved=1;endArrow=classic;html=1;rounded=0;" edge="1" parent="1">
          <mxGeometry width="50" height="50" relative="1" as="geometry">
            <mxPoint x="238" y="130" as="sourcePoint" />
            <mxPoint x="220" y="107" as="targetPoint" />
            <Array as="points">
              <mxPoint x="278" y="140" />
              <mxPoint x="298" y="110" />
              <mxPoint x="278" y="80" />
              <mxPoint x="238" y="80" />
            </Array>
          </mxGeometry>
        </mxCell>
        <mxCell id="JIT0sakNjQuN4NCG6WRB-6" value="&lt;font style=&quot;font-size: 10px;&quot;&gt;button = 0&lt;br&gt;&lt;/font&gt;" style="text;html=1;strokeColor=none;fillColor=none;align=center;verticalAlign=middle;whiteSpace=wrap;rounded=0;" vertex="1" parent="1">
          <mxGeometry x="240" y="100" width="50" height="10" as="geometry" />
        </mxCell>
        <mxCell id="JIT0sakNjQuN4NCG6WRB-9" value="" style="endArrow=classic;html=1;rounded=0;entryX=1;entryY=0.375;entryDx=0;entryDy=0;entryPerimeter=0;" edge="1" parent="1" target="JIT0sakNjQuN4NCG6WRB-2">
          <mxGeometry width="50" height="50" relative="1" as="geometry">
            <mxPoint x="170" y="170" as="sourcePoint" />
            <mxPoint x="120" y="210" as="targetPoint" />
          </mxGeometry>
        </mxCell>
        <mxCell id="JIT0sakNjQuN4NCG6WRB-10" value="&lt;font style=&quot;font-size: 10px;&quot;&gt;button = 1&lt;br&gt;&lt;/font&gt;" style="text;html=1;strokeColor=none;fillColor=none;align=center;verticalAlign=middle;whiteSpace=wrap;rounded=0;rotation=-15;" vertex="1" parent="1">
          <mxGeometry x="110" y="160" width="50" height="10" as="geometry" />
        </mxCell>
        <mxCell id="JIT0sakNjQuN4NCG6WRB-11" value="" style="endArrow=classic;html=1;rounded=0;entryX=0.5;entryY=1;entryDx=0;entryDy=0;" edge="1" parent="1" target="JIT0sakNjQuN4NCG6WRB-1">
          <mxGeometry width="50" height="50" relative="1" as="geometry">
            <mxPoint x="80" y="160" as="sourcePoint" />
            <mxPoint x="130" y="110" as="targetPoint" />
          </mxGeometry>
        </mxCell>
        <mxCell id="JIT0sakNjQuN4NCG6WRB-12" value="&lt;font style=&quot;font-size: 10px;&quot;&gt;button = 1&lt;br&gt;&lt;/font&gt;" style="text;html=1;strokeColor=none;fillColor=none;align=center;verticalAlign=middle;whiteSpace=wrap;rounded=0;" vertex="1" parent="1">
          <mxGeometry x="30" y="135" width="50" height="10" as="geometry" />
        </mxCell>
        <mxCell id="JIT0sakNjQuN4NCG6WRB-15" value="" style="curved=1;endArrow=classic;html=1;rounded=0;entryX=0.75;entryY=1;entryDx=0;entryDy=0;entryPerimeter=0;" edge="1" parent="1" target="JIT0sakNjQuN4NCG6WRB-3">
          <mxGeometry width="50" height="50" relative="1" as="geometry">
            <mxPoint x="80" y="240" as="sourcePoint" />
            <mxPoint x="130" y="190" as="targetPoint" />
            <Array as="points">
              <mxPoint x="130" y="240" />
              <mxPoint x="240" y="230" />
            </Array>
          </mxGeometry>
        </mxCell>
        <mxCell id="JIT0sakNjQuN4NCG6WRB-16" value="&lt;font style=&quot;font-size: 10px;&quot;&gt;button = 0&lt;br&gt;&lt;/font&gt;" style="text;html=1;strokeColor=none;fillColor=none;align=center;verticalAlign=middle;whiteSpace=wrap;rounded=0;" vertex="1" parent="1">
          <mxGeometry x="140" y="240" width="50" height="10" as="geometry" />
        </mxCell>
        <mxCell id="JIT0sakNjQuN4NCG6WRB-17" value="&lt;font style=&quot;font-size: 10px;&quot;&gt;button = 1&lt;br&gt;&lt;/font&gt;" style="text;html=1;strokeColor=none;fillColor=none;align=center;verticalAlign=middle;whiteSpace=wrap;rounded=0;rotation=15;" vertex="1" parent="1">
          <mxGeometry x="120" y="30" width="50" height="10" as="geometry" />
        </mxCell>
        <mxCell id="JIT0sakNjQuN4NCG6WRB-18" value="" style="endArrow=classic;html=1;rounded=0;entryX=0.018;entryY=0.316;entryDx=0;entryDy=0;entryPerimeter=0;" edge="1" parent="1" target="JIT0sakNjQuN4NCG6WRB-3">
          <mxGeometry width="50" height="50" relative="1" as="geometry">
            <mxPoint x="120" y="95" as="sourcePoint" />
            <mxPoint x="170" y="135" as="targetPoint" />
          </mxGeometry>
        </mxCell>
        <mxCell id="JIT0sakNjQuN4NCG6WRB-19" value="&lt;font style=&quot;font-size: 10px;&quot;&gt;button = 0&lt;br&gt;&lt;/font&gt;" style="text;html=1;strokeColor=none;fillColor=none;align=center;verticalAlign=middle;whiteSpace=wrap;rounded=0;rotation=30;" vertex="1" parent="1">
          <mxGeometry x="120" y="90" width="50" height="10" as="geometry" />
        </mxCell>
      </root>
    </mxGraphModel>
  </diagram>
</mxfile>
